<?xml version="1.0" encoding="UTF-8"?>
<svg width="45px" height="27px" viewBox="0 0 45 27" version="1.1" xmlns="http://www.w3.org/2000/svg" xmlns:xlink="http://www.w3.org/1999/xlink">
    <!-- Generator: Sketch 48.2 (47327) - http://www.bohemiancoding.com/sketch -->
    <title>selected-splat</title>
    <desc>Created with Sketch.</desc>
    <defs></defs>
    <g id="xHome" stroke="none" stroke-width="1" fill="none" fill-rule="evenodd" transform="translate(-813.000000, -29.000000)" fill-opacity="0.5">
        <g id="Main-Menu" transform="translate(744.000000, 10.000000)" fill="#FF5E12">
            <g id="Menu-Items">
                <path d="M85.6310587,53.6996673 C85.0450587,52.7506673 89.6340587,48.6176673 91.2750587,48.6176673 C91.7830587,48.6176673 91.9200587,48.1686673 91.5800587,47.6136673 C91.2360587,47.0636673 89.9080587,46.8756673 88.6230587,47.1956673 C86.2090587,47.8016673 85.4310587,46.4266673 83.6660587,38.4306673 C83.2670587,36.6256673 82.4700587,35.7896673 81.2400587,35.8836673 C79.6190587,36.0046673 79.5520587,36.3016673 80.6890587,38.4886673 C81.5490587,40.1496673 81.6580587,41.5396673 81.0210587,42.7316673 C78.7010587,47.0636673 78.0800587,45.4776673 78.0800587,35.2346673 C78.0800587,29.3166673 78.5170587,24.4656673 79.0800587,24.1176673 C80.5720587,23.1956673 80.3300587,20.3596673 78.8300587,21.2076673 C77.8690587,21.7506673 77.8490587,21.6216673 78.7520587,20.6456673 C79.3960587,19.9456673 79.6580587,18.6806673 79.3340587,17.8326673 C78.9820587,16.9186673 79.1580587,16.5476673 79.7670587,16.9226673 C80.4000587,17.3166673 80.6110587,16.6216673 80.3180587,15.0866673 C80.0600587,13.7316673 79.4510587,12.6176673 78.9630587,12.6176673 C78.4780587,12.6176673 78.0800587,11.8876673 78.0800587,10.9966673 C78.0800587,9.66866732 78.3530587,9.60266732 79.5760587,10.6136673 C80.3960587,11.2976673 82.2200587,11.6336673 83.6310587,11.3636673 C86.5640587,10.8056673 90.0600587,13.3956673 88.0490587,14.6376673 C87.2630587,15.1256673 87.2130587,15.5826673 87.9000587,16.0086673 C88.4700587,16.3596673 90.6420587,15.0866673 92.7280587,13.1766673 C94.8100587,11.2666673 96.7630587,10.1066673 97.0680587,10.5986673 C97.3730587,11.0906673 98.8490587,11.9616673 100.349059,12.5316673 C102.568059,13.3756673 103.080059,14.1926673 103.080059,16.8956673 C103.080059,18.7236673 103.541059,20.6806673 104.103059,21.2426673 C105.990059,23.1256673 102.463059,28.9226673 97.1850587,32.6176673 C94.4310587,34.5436673 92.3180587,36.5666673 92.4900587,37.1176673 C92.7870587,38.0866673 93.6310587,38.0666673 99.2130587,36.9536673 C100.658059,36.6646673 102.146059,36.9146673 102.517059,37.5126673 C103.412059,38.9656673 99.9980587,43.5476673 97.9860587,43.5866673 C96.3570587,43.6176673 93.0800587,46.6256673 93.0800587,48.0866673 C93.0800587,48.5316673 93.8340587,49.4496673 94.7520587,50.1216673 C95.6700587,50.7936673 96.5290587,52.0786673 96.6620587,52.9816673 C96.8610587,54.3246673 95.9390587,54.6176673 91.5520587,54.6176673 C88.6070587,54.6176673 85.9430587,54.2036673 85.6310587,53.6996673 Z" id="selected-splat" transform="translate(91.348863, 32.268804) rotate(-90.000000) translate(-91.348863, -32.268804) "></path>
            </g>
        </g>
    </g>
</svg>